<svg width="310" height="285" viewBox="0 0 310 285" fill="none" xmlns="http://www.w3.org/2000/svg">
<path d="M310 126.216C310 163.66 299.901 205.966 268.065 229.405C230.486 257.066 189.221 238.824 147.073 243.502C108.991 247.724 75.0073 269.075 52.6307 244.081C38.3121 228.064 45.3952 205.677 38.6777 192.037C26.8267 167.973 3.64278 154.821 0.596265 125.942C-4.70466 76.3663 26.0803 73.3335 63.461 57.7126C94.703 44.6673 124.041 9.28024 156.288 2.849C251.019 -16.1704 310 63.9762 310 126.216Z" fill="url(#paint0_linear)"/>
<g opacity="0.4" filter="url(#filter0_d)">
<ellipse cx="172.672" cy="162.233" rx="115.672" ry="114.229" fill="#3FD3D0"/>
</g>
<g filter="url(#filter1_d)">
<ellipse cx="167.028" cy="154.655" rx="110.028" ry="108.655" fill="white"/>
</g>
<path d="M178.295 174.485C178.295 177.084 175.215 180.279 172.709 180.279H170.428C170.431 164.373 170.431 146.542 170.428 143.377C170.427 143.283 170.445 143.19 170.48 143.103C170.515 143.016 170.566 142.937 170.631 142.87C170.697 142.804 170.774 142.75 170.86 142.714C170.946 142.677 171.038 142.658 171.131 142.657H177.589C177.977 142.657 178.295 142.985 178.295 143.383V174.485ZM167.77 185.86C167.77 187.505 166.97 190.261 161.614 190.261C151.234 190.261 144.862 182.074 144.862 176.202C144.862 176.202 144.851 157.217 144.851 143.383C144.849 143.289 144.867 143.196 144.902 143.109C144.936 143.022 144.988 142.942 145.053 142.876C145.119 142.809 145.197 142.755 145.283 142.719C145.369 142.682 145.461 142.663 145.554 142.663H152.021C152.409 142.663 152.727 142.988 152.727 143.389V173.893C152.727 178.933 156.69 183.021 161.574 183.021H167.773L167.77 185.86ZM178.079 139.921H170.639C169.057 139.921 167.769 141.251 167.769 142.884V180.282H161.57C158.15 180.282 155.378 177.421 155.378 173.893V142.883C155.378 141.248 154.092 139.92 152.506 139.92H145.063C143.477 139.92 142.191 141.248 142.189 142.883C142.185 156.405 142.2 176.203 142.2 176.203C142.201 186.61 153.506 193 161.612 193C167.048 193 170.425 190.258 170.425 185.841V183.021H172.708C176.713 183.021 180.95 178.635 180.95 174.485V142.883C180.953 141.248 179.667 139.92 178.079 139.92V139.921ZM134.106 179.617C134.107 179.711 134.09 179.804 134.055 179.891C134.02 179.978 133.968 180.057 133.903 180.124C133.838 180.19 133.76 180.244 133.674 180.28C133.588 180.316 133.496 180.335 133.403 180.336H126.936C126.747 180.333 126.567 180.256 126.435 180.12C126.302 179.984 126.228 179.802 126.229 179.611V149.106C126.229 144.066 122.266 139.979 117.382 139.979H111.184V137.14C111.184 135.499 111.983 132.739 117.34 132.739C127.72 132.739 134.094 140.926 134.094 146.798C134.094 146.798 134.105 165.875 134.105 179.617H134.106ZM101.361 180.342C101.172 180.339 100.992 180.261 100.86 180.125C100.728 179.988 100.655 179.805 100.657 179.615V148.518C100.657 145.919 103.738 142.72 106.242 142.72H108.525C108.522 165.497 108.522 177.152 108.525 179.614C108.527 179.804 108.454 179.987 108.322 180.123C108.19 180.259 108.009 180.337 107.82 180.339H101.362L101.361 180.342ZM136.748 146.798C136.749 136.39 125.444 130 117.34 130C111.902 130 108.525 132.742 108.525 137.159V139.978H106.243C102.237 139.978 98 144.365 98 148.515V180.116C98 181.752 99.2864 183.08 100.871 183.08H108.309C108.356 183.08 108.395 183.067 108.442 183.067C109.962 182.993 111.18 181.704 111.18 180.116V142.718H117.38C120.799 142.718 123.572 145.578 123.572 149.106V180.116C123.572 181.752 124.858 183.08 126.443 183.08H133.887C135.473 183.08 136.758 181.756 136.758 180.116C136.764 166.343 136.749 146.796 136.749 146.796L136.748 146.798ZM243.979 180.283C243.951 180.284 243.924 180.277 243.9 180.265C243.875 180.253 243.854 180.235 243.837 180.213L237.416 171.62H237.354V180.101C237.355 180.125 237.351 180.149 237.342 180.172C237.333 180.194 237.32 180.214 237.303 180.231C237.287 180.249 237.267 180.262 237.245 180.272C237.223 180.281 237.2 180.287 237.176 180.287H234.906C234.882 180.287 234.858 180.282 234.837 180.272C234.815 180.263 234.795 180.249 234.778 180.232C234.762 180.215 234.749 180.195 234.74 180.172C234.731 180.15 234.727 180.126 234.727 180.102V155.728C234.727 155.626 234.807 155.543 234.906 155.543H237.176C237.274 155.543 237.354 155.626 237.354 155.728V171.272H237.416L243.446 163.403C243.47 163.37 243.501 163.343 243.538 163.325C243.574 163.307 243.615 163.297 243.655 163.298H246.298C246.375 163.298 246.415 163.39 246.366 163.447L239.892 171.364L246.979 180.133C246.99 180.146 246.997 180.162 246.999 180.179C247.001 180.196 246.999 180.213 246.992 180.229C246.985 180.244 246.974 180.258 246.96 180.267C246.945 180.277 246.929 180.282 246.912 180.282H243.979V180.283ZM228.281 180.283C228.258 180.283 228.234 180.278 228.212 180.269C228.191 180.259 228.171 180.245 228.154 180.228C228.138 180.211 228.125 180.191 228.116 180.169C228.107 180.147 228.103 180.123 228.103 180.099V168.558C228.103 166.007 227.095 164.743 224.408 164.743C223.329 164.743 222.444 164.915 221.62 165.262C221.586 165.277 221.558 165.302 221.537 165.333C221.517 165.364 221.507 165.4 221.507 165.438V180.095C221.507 180.119 221.502 180.143 221.494 180.166C221.485 180.188 221.472 180.208 221.455 180.225C221.438 180.242 221.418 180.256 221.396 180.265C221.374 180.275 221.351 180.28 221.327 180.28H218.996C218.948 180.279 218.902 180.259 218.869 180.225C218.835 180.19 218.816 180.144 218.817 180.095V164.358C218.816 164.305 218.831 164.253 218.859 164.208C218.887 164.163 218.927 164.127 218.974 164.104C220.482 163.419 222.429 162.98 224.405 162.98C228.834 162.98 230.789 164.966 230.789 168.558V180.099C230.789 180.2 230.708 180.283 230.61 180.283L228.281 180.283ZM212.381 170.703C208.197 171.205 205.724 172.406 205.724 175.4C205.724 177.7 207.098 178.992 209.664 178.992C210.651 178.992 211.639 178.791 212.285 178.476C212.316 178.46 212.341 178.436 212.358 178.406C212.376 178.377 212.384 178.343 212.384 178.308L212.381 170.703ZM209.416 180.598C205.476 180.598 203.157 178.832 203.157 175.463C203.157 171.365 207.067 169.79 212.38 169.256V168.215C212.38 165.882 211.159 164.842 208.868 164.842C207.468 164.842 205.95 165.262 204.828 165.867C204.817 165.873 204.805 165.876 204.793 165.877C204.78 165.878 204.768 165.876 204.756 165.871C204.745 165.867 204.735 165.86 204.726 165.851C204.718 165.842 204.711 165.831 204.707 165.819L204.161 164.371C204.145 164.328 204.145 164.28 204.161 164.237C204.177 164.193 204.208 164.157 204.248 164.135C205.764 163.392 207.425 162.997 209.111 162.98C212.685 162.98 214.885 164.714 214.885 168.495V179.227C214.885 179.332 214.831 179.43 214.739 179.475C213.429 180.16 211.535 180.598 209.416 180.598ZM193.875 164.714C192.897 164.714 192.012 164.965 191.248 165.344V178.265C191.248 178.342 191.287 178.409 191.356 178.437C191.959 178.691 192.793 178.831 193.569 178.831C196.959 178.831 198.303 175.869 198.303 171.615C198.303 167.361 196.716 164.713 193.875 164.713V164.714ZM193.481 180.597C191.603 180.597 189.838 180.104 188.727 179.477C188.685 179.452 188.65 179.416 188.626 179.373C188.602 179.33 188.59 179.281 188.592 179.232V155.725C188.592 155.623 188.673 155.541 188.768 155.541H191.072C191.17 155.541 191.25 155.622 191.25 155.725V163.798C192.197 163.294 193.326 163.04 194.55 163.04C198.399 163.04 200.995 166.318 200.995 171.452C200.993 176.942 198.396 180.598 193.48 180.598L193.481 180.597Z" fill="#8A05BE"/>
<defs>
<filter id="filter0_d" x="53" y="48.0039" width="239.343" height="236.458" filterUnits="userSpaceOnUse" color-interpolation-filters="sRGB">
<feFlood flood-opacity="0" result="BackgroundImageFix"/>
<feColorMatrix in="SourceAlpha" type="matrix" values="0 0 0 0 0 0 0 0 0 0 0 0 0 0 0 0 0 0 127 0"/>
<feOffset dy="4"/>
<feGaussianBlur stdDeviation="2"/>
<feColorMatrix type="matrix" values="0 0 0 0 0.344531 0 0 0 0 0.6125 0 0 0 0 0.594635 0 0 0 0.07 0"/>
<feBlend mode="normal" in2="BackgroundImageFix" result="effect1_dropShadow"/>
<feBlend mode="normal" in="SourceGraphic" in2="effect1_dropShadow" result="shape"/>
</filter>
<filter id="filter1_d" x="53" y="46" width="228.055" height="225.311" filterUnits="userSpaceOnUse" color-interpolation-filters="sRGB">
<feFlood flood-opacity="0" result="BackgroundImageFix"/>
<feColorMatrix in="SourceAlpha" type="matrix" values="0 0 0 0 0 0 0 0 0 0 0 0 0 0 0 0 0 0 127 0"/>
<feOffset dy="4"/>
<feGaussianBlur stdDeviation="2"/>
<feColorMatrix type="matrix" values="0 0 0 0 0.344531 0 0 0 0 0.6125 0 0 0 0 0.594635 0 0 0 0.07 0"/>
<feBlend mode="normal" in2="BackgroundImageFix" result="effect1_dropShadow"/>
<feBlend mode="normal" in="SourceGraphic" in2="effect1_dropShadow" result="shape"/>
</filter>
<linearGradient id="paint0_linear" x1="23.25" y1="457.878" x2="478.754" y2="262.235" gradientUnits="userSpaceOnUse">
<stop offset="0.20201" stop-color="#5CDBCF" stop-opacity="0.90721"/>
<stop offset="0.954551" stop-color="#DBFFCC"/>
</linearGradient>
</defs>
</svg>
